<?xml version="1.0" encoding="utf-8" standalone="no"?>
<!DOCTYPE svg PUBLIC "-//W3C//DTD SVG 1.1//EN"
  "http://www.w3.org/Graphics/SVG/1.1/DTD/svg11.dtd">
<svg xmlns:xlink="http://www.w3.org/1999/xlink" width="3186.353125pt" height="484.4pt" viewBox="0 0 3186.353125 484.4" xmlns="http://www.w3.org/2000/svg" version="1.1">
 <metadata>
  <rdf:RDF xmlns:dc="http://purl.org/dc/elements/1.1/" xmlns:cc="http://creativecommons.org/ns#" xmlns:rdf="http://www.w3.org/1999/02/22-rdf-syntax-ns#">
   <cc:Work>
    <dc:type rdf:resource="http://purl.org/dc/dcmitype/StillImage"/>
    <dc:date>2024-10-23T14:24:32.203403</dc:date>
    <dc:format>image/svg+xml</dc:format>
    <dc:creator>
     <cc:Agent>
      <dc:title>Matplotlib v3.9.2, https://matplotlib.org/</dc:title>
     </cc:Agent>
    </dc:creator>
   </cc:Work>
  </rdf:RDF>
 </metadata>
 <defs>
  <style type="text/css">*{stroke-linejoin: round; stroke-linecap: butt}</style>
 </defs>
 <g id="figure_1">
  <g id="patch_1">
   <path d="M 0 484.4 
L 3186.353125 484.4 
L 3186.353125 0 
L 0 0 
L 0 484.4 
z
" style="fill: none"/>
  </g>
  <g id="text_1">
   <!-- (sensible)bmi -->
   <g style="fill: #808080" transform="translate(7.2 377.2) scale(5 -5)">
    <defs>
     <path id="Quicksand-Bold-28" d="M 1869 -1165 
Q 1773 -1165 1696 -1114 
Q 1210 -787 874 -355 
Q 538 77 365 589 
Q 192 1101 192 1658 
Q 192 2214 365 2726 
Q 538 3238 874 3670 
Q 1210 4102 1696 4429 
Q 1773 4480 1869 4480 
Q 2022 4480 2105 4365 
Q 2189 4250 2189 4147 
Q 2189 4000 2054 3891 
Q 1690 3603 1446 3248 
Q 1203 2893 1084 2489 
Q 966 2086 966 1658 
Q 966 1229 1078 819 
Q 1190 410 1433 54 
Q 1677 -301 2054 -576 
Q 2189 -672 2189 -832 
Q 2189 -947 2096 -1056 
Q 2003 -1165 1869 -1165 
z
" transform="scale(0.015625)"/>
     <path id="Quicksand-Bold-73" d="M 218 531 
Q 154 621 160 761 
Q 166 902 326 1005 
Q 429 1069 544 1059 
Q 659 1050 768 941 
Q 954 755 1158 652 
Q 1363 550 1670 550 
Q 1766 557 1881 579 
Q 1997 602 2083 682 
Q 2170 762 2170 928 
Q 2170 1069 2074 1152 
Q 1978 1235 1821 1292 
Q 1664 1350 1472 1402 
Q 1274 1459 1066 1529 
Q 858 1600 685 1712 
Q 512 1824 403 2009 
Q 294 2195 294 2477 
Q 294 2797 473 3021 
Q 653 3245 937 3366 
Q 1222 3488 1536 3488 
Q 1734 3488 1952 3440 
Q 2170 3392 2368 3286 
Q 2566 3181 2701 3008 
Q 2771 2912 2784 2777 
Q 2797 2643 2662 2534 
Q 2566 2458 2438 2467 
Q 2310 2477 2227 2554 
Q 2118 2694 1936 2777 
Q 1754 2861 1517 2861 
Q 1421 2861 1309 2838 
Q 1197 2816 1113 2742 
Q 1030 2669 1030 2509 
Q 1030 2362 1126 2275 
Q 1222 2189 1385 2134 
Q 1549 2080 1734 2029 
Q 1926 1978 2124 1907 
Q 2323 1837 2489 1721 
Q 2656 1606 2758 1424 
Q 2861 1242 2861 960 
Q 2861 634 2669 403 
Q 2477 173 2189 54 
Q 1901 -64 1600 -64 
Q 1222 -64 844 67 
Q 467 198 218 531 
z
" transform="scale(0.015625)"/>
     <path id="Quicksand-Bold-65" d="M 1997 -64 
Q 1453 -64 1053 163 
Q 653 390 438 780 
Q 224 1171 224 1664 
Q 224 2240 457 2646 
Q 691 3053 1068 3270 
Q 1446 3488 1869 3488 
Q 2195 3488 2486 3353 
Q 2778 3219 3002 2985 
Q 3226 2752 3357 2445 
Q 3488 2138 3488 1792 
Q 3482 1638 3366 1542 
Q 3251 1446 3098 1446 
L 653 1446 
L 461 2086 
L 2810 2086 
L 2669 1958 
L 2669 2131 
Q 2656 2317 2537 2464 
Q 2419 2611 2243 2697 
Q 2067 2784 1869 2784 
Q 1677 2784 1510 2733 
Q 1344 2682 1222 2560 
Q 1101 2438 1030 2233 
Q 960 2029 960 1715 
Q 960 1370 1104 1130 
Q 1248 890 1475 765 
Q 1702 640 1958 640 
Q 2195 640 2336 678 
Q 2477 717 2563 771 
Q 2650 826 2720 864 
Q 2835 922 2938 922 
Q 3078 922 3171 826 
Q 3264 730 3264 602 
Q 3264 429 3085 288 
Q 2918 147 2617 41 
Q 2317 -64 1997 -64 
z
" transform="scale(0.015625)"/>
     <path id="Quicksand-Bold-6e" d="M 2246 3488 
Q 2720 3488 2966 3289 
Q 3213 3091 3305 2761 
Q 3398 2432 3398 2029 
L 3398 390 
Q 3398 224 3289 112 
Q 3181 0 3014 0 
Q 2848 0 2739 112 
Q 2630 224 2630 390 
L 2630 2029 
Q 2630 2240 2576 2409 
Q 2522 2579 2381 2681 
Q 2240 2784 1978 2784 
Q 1722 2784 1546 2681 
Q 1370 2579 1277 2409 
Q 1184 2240 1184 2029 
L 1184 390 
Q 1184 224 1075 112 
Q 966 0 800 0 
Q 634 0 525 112 
Q 416 224 416 390 
L 416 3034 
Q 416 3200 525 3312 
Q 634 3424 800 3424 
Q 966 3424 1075 3312 
Q 1184 3200 1184 3034 
L 1184 2758 
L 1088 2778 
Q 1146 2886 1254 3011 
Q 1363 3136 1510 3245 
Q 1658 3354 1843 3421 
Q 2029 3488 2246 3488 
z
" transform="scale(0.015625)"/>
     <path id="Quicksand-Bold-69" d="M 1139 390 
Q 1139 224 1030 112 
Q 922 0 755 0 
Q 589 0 480 112 
Q 371 224 371 390 
L 371 3034 
Q 371 3200 480 3312 
Q 589 3424 755 3424 
Q 922 3424 1030 3312 
Q 1139 3200 1139 3034 
L 1139 390 
z
M 749 3840 
Q 531 3840 441 3910 
Q 352 3981 352 4160 
L 352 4282 
Q 352 4467 451 4534 
Q 550 4602 755 4602 
Q 979 4602 1068 4531 
Q 1158 4461 1158 4282 
L 1158 4160 
Q 1158 3974 1062 3907 
Q 966 3840 749 3840 
z
" transform="scale(0.015625)"/>
     <path id="Quicksand-Bold-62" d="M 2189 3488 
Q 2637 3488 2992 3261 
Q 3347 3034 3555 2637 
Q 3763 2240 3763 1715 
Q 3763 1190 3555 790 
Q 3347 390 2998 163 
Q 2650 -64 2214 -64 
Q 1958 -64 1734 19 
Q 1510 102 1340 230 
Q 1171 358 1078 489 
Q 986 621 986 710 
L 1184 794 
L 1184 326 
Q 1184 160 1075 48 
Q 966 -64 800 -64 
Q 634 -64 525 45 
Q 416 154 416 326 
L 416 4346 
Q 416 4512 525 4624 
Q 634 4736 800 4736 
Q 966 4736 1075 4624 
Q 1184 4512 1184 4346 
L 1184 2720 
L 1075 2778 
Q 1075 2861 1164 2979 
Q 1254 3098 1408 3216 
Q 1562 3334 1763 3411 
Q 1965 3488 2189 3488 
z
M 2093 2784 
Q 1811 2784 1600 2643 
Q 1389 2502 1270 2262 
Q 1152 2022 1152 1715 
Q 1152 1414 1270 1168 
Q 1389 922 1600 781 
Q 1811 640 2093 640 
Q 2374 640 2582 781 
Q 2790 922 2908 1168 
Q 3027 1414 3027 1715 
Q 3027 2022 2908 2262 
Q 2790 2502 2582 2643 
Q 2374 2784 2093 2784 
z
" transform="scale(0.015625)"/>
     <path id="Quicksand-Bold-6c" d="M 1248 390 
Q 1248 224 1136 112 
Q 1024 0 858 0 
Q 698 0 589 112 
Q 480 224 480 390 
L 480 4346 
Q 480 4512 592 4624 
Q 704 4736 870 4736 
Q 1037 4736 1142 4624 
Q 1248 4512 1248 4346 
L 1248 390 
z
" transform="scale(0.015625)"/>
     <path id="Quicksand-Bold-29" d="M 416 -1165 
Q 262 -1165 179 -1049 
Q 96 -934 96 -832 
Q 96 -678 230 -576 
Q 602 -288 842 67 
Q 1082 422 1200 825 
Q 1318 1229 1318 1658 
Q 1318 2086 1206 2496 
Q 1094 2906 854 3264 
Q 614 3622 230 3891 
Q 96 3987 96 4147 
Q 96 4262 189 4371 
Q 282 4480 416 4480 
Q 512 4480 589 4429 
Q 1082 4102 1414 3670 
Q 1747 3238 1920 2726 
Q 2093 2214 2093 1658 
Q 2093 1101 1920 589 
Q 1747 77 1414 -355 
Q 1082 -787 589 -1114 
Q 512 -1165 416 -1165 
z
" transform="scale(0.015625)"/>
     <path id="Quicksand-Bold-6d" d="M 2214 3488 
Q 2726 3488 2969 3241 
Q 3213 2995 3290 2605 
L 3181 2662 
L 3232 2765 
Q 3309 2912 3469 3081 
Q 3629 3251 3856 3369 
Q 4083 3488 4365 3488 
Q 4826 3488 5066 3289 
Q 5306 3091 5395 2761 
Q 5485 2432 5485 2029 
L 5485 390 
Q 5485 224 5376 112 
Q 5267 0 5101 0 
Q 4934 0 4825 112 
Q 4717 224 4717 390 
L 4717 2029 
Q 4717 2240 4665 2409 
Q 4614 2579 4480 2681 
Q 4346 2784 4096 2784 
Q 3853 2784 3680 2681 
Q 3507 2579 3420 2409 
Q 3334 2240 3334 2029 
L 3334 390 
Q 3334 224 3225 112 
Q 3117 0 2950 0 
Q 2784 0 2675 112 
Q 2566 224 2566 390 
L 2566 2029 
Q 2566 2240 2515 2409 
Q 2464 2579 2329 2681 
Q 2195 2784 1946 2784 
Q 1702 2784 1529 2681 
Q 1357 2579 1270 2409 
Q 1184 2240 1184 2029 
L 1184 390 
Q 1184 224 1075 112 
Q 966 0 800 0 
Q 634 0 525 112 
Q 416 224 416 390 
L 416 3034 
Q 416 3200 525 3312 
Q 634 3424 800 3424 
Q 966 3424 1075 3312 
Q 1184 3200 1184 3034 
L 1184 2758 
L 1088 2778 
Q 1146 2886 1248 3011 
Q 1350 3136 1497 3245 
Q 1645 3354 1824 3421 
Q 2003 3488 2214 3488 
z
" transform="scale(0.015625)"/>
    </defs>
    <use xlink:href="#Quicksand-Bold-28"/>
    <use xlink:href="#Quicksand-Bold-73" x="35.699997"/>
    <use xlink:href="#Quicksand-Bold-65" x="83.899994"/>
    <use xlink:href="#Quicksand-Bold-6e" x="141.899979"/>
    <use xlink:href="#Quicksand-Bold-73" x="201.499969"/>
    <use xlink:href="#Quicksand-Bold-69" x="249.699966"/>
    <use xlink:href="#Quicksand-Bold-62" x="273.299957"/>
    <use xlink:href="#Quicksand-Bold-6c" x="335.599945"/>
    <use xlink:href="#Quicksand-Bold-65" x="362.59993"/>
    <use xlink:href="#Quicksand-Bold-29" x="420.599915"/>
    <use xlink:href="#Quicksand-Bold-62" x="456.299911"/>
    <use xlink:href="#Quicksand-Bold-6d" x="518.599899"/>
    <use xlink:href="#Quicksand-Bold-69" x="610.799881"/>
   </g>
  </g>
 </g>
</svg>
